<?xml version="1.0" standalone="no"?>
<!DOCTYPE svg PUBLIC "-//W3C//DTD SVG 20010904//EN"
 "http://www.w3.org/TR/2001/REC-SVG-20010904/DTD/svg10.dtd">
<svg version="1.0" xmlns="http://www.w3.org/2000/svg"
 width="1500.000000pt" height="1500.000000pt" viewBox="0 0 1500.000000 1500.000000"
 preserveAspectRatio="xMidYMid meet">

<g transform="translate(0.000000,1500.000000) scale(0.100000,-0.100000)"
fill="#000000" stroke="none">
<path d="M3218 14610 c-682 -53 -1337 -335 -1830 -790 -561 -518 -891 -1168
-980 -1930 -19 -168 -19 -8656 0 -8805 42 -318 104 -561 211 -829 234 -583
693 -1120 1235 -1445 362 -217 686 -337 1101 -405 139 -23 169 -26 330 -34
203 -10 8448 -8 8555 2 178 16 399 55 550 97 395 111 781 310 1110 573 124 98
407 391 501 516 366 488 568 1013 619 1605 14 164 14 8473 0 8640 -63 745
-362 1394 -885 1917 -487 488 -1075 774 -1795 876 -104 14 -510 16 -4370 18
-2340 0 -4298 -2 -4352 -6z m4827 -1846 c249 -22 484 -55 675 -95 686 -143
1351 -435 1929 -847 1094 -782 1845 -1962 2080 -3270 17 -91 34 -210 55 -387
28 -222 31 -746 6 -990 -16 -163 -20 -193 -46 -355 -137 -865 -500 -1685
-1053 -2380 -174 -219 -465 -521 -676 -702 -225 -193 -545 -419 -805 -567
-579 -331 -1226 -546 -1890 -630 -536 -68 -1107 -50 -1618 50 -470 92 -841
216 -1272 426 -129 63 -227 104 -245 104 -16 0 -169 -38 -340 -84 -339 -93
-463 -127 -600 -162 -91 -24 -153 -41 -600 -160 -290 -77 -364 -97 -615 -166
-302 -83 -492 -131 -497 -125 -6 6 10 72 97 391 71 262 142 528 236 880 54
202 270 1003 321 1190 44 162 44 168 -23 286 -211 378 -407 894 -503 1329 -93
421 -133 808 -125 1220 4 205 6 243 25 440 137 1404 880 2719 2024 3582 409
308 870 558 1364 738 431 157 977 267 1426 287 77 3 142 8 145 10 6 5 443 -5
525 -13z"/>
<path d="M7480 11883 c-269 -18 -478 -44 -665 -83 -978 -201 -1837 -732 -2472
-1525 -487 -608 -804 -1370 -892 -2145 -6 -52 -13 -117 -16 -145 -11 -90 -13
-487 -4 -610 25 -344 70 -605 162 -930 107 -376 303 -802 518 -1122 49 -72 69
-112 69 -134 0 -26 -52 -235 -119 -474 -17 -60 -62 -226 -115 -425 -8 -30 -37
-140 -66 -245 -86 -317 -100 -369 -97 -371 2 -2 160 40 382 101 50 13 209 56
355 95 146 39 333 89 415 111 83 22 192 51 243 65 149 42 160 42 223 1 532
-340 1137 -552 1809 -634 183 -22 682 -25 870 -5 772 83 1443 339 2080 795
382 274 765 671 1038 1079 141 209 317 534 397 733 144 354 249 743 289 1070
8 66 18 140 21 165 10 80 14 592 5 710 -64 819 -361 1599 -860 2255 -165 217
-442 507 -650 681 -590 492 -1313 822 -2059 939 -245 38 -665 62 -861 48z
m-1372 -1873 c194 -21 214 -42 377 -405 173 -388 297 -683 311 -743 21 -87 13
-223 -17 -312 -37 -107 -89 -178 -236 -318 l-136 -130 8 -49 c33 -222 292
-619 615 -942 323 -323 749 -582 1166 -710 183 -56 196 -50 375 176 305 386
319 402 385 423 92 31 197 -3 621 -201 301 -140 397 -182 494 -220 46 -18 95
-39 109 -47 105 -64 130 -144 110 -345 -46 -470 -247 -768 -628 -933 -299
-129 -865 -106 -1396 58 -476 147 -947 385 -1386 702 -241 174 -409 316 -634
536 -549 536 -923 1126 -1091 1720 -80 285 -93 552 -40 825 74 381 312 742
577 876 87 44 236 58 416 39z"/>
</g>
</svg>
