<svg width="736" height="511" viewBox="0 0 736 511" fill="none" xmlns="http://www.w3.org/2000/svg">
<g clip-path="url(#clip0_4337_9191)">
<g clip-path="url(#clip1_4337_9191)">
<path d="M595.274 16.4072H669.912V90.3197H595.274V16.4072Z" fill="#D8DEED"/>
<path d="M616.651 37.7842H648.535V69.668H616.651V37.7842ZM634.29 51.2688C634.708 51.8375 635.953 52.4501 638.027 53.1066C640.463 53.5867 641.533 52.6856 641.238 50.4034C641.026 48.7665 639.354 48.5935 637.686 48.9665C637.8 48.8278 637.918 48.6831 638.038 48.5325C639.359 46.4306 638.901 45.1085 636.665 44.5663C635.196 44.2102 634.434 45.4377 634.125 46.946C634.106 46.8969 634.086 46.8473 634.067 46.7974C632.907 44.6024 631.533 44.3378 629.945 46.0035C627.88 48.17 632.578 51.0387 634.29 51.2688Z" fill="#F2F6FB"/>
<path d="M633.368 58.8919C635.403 62.4152 635.025 64.0135 632.235 63.6869C627.416 63.1229 624.212 54.5657 625.146 53.173C625.769 52.2446 628.147 53.574 632.279 57.1613C632.312 57.2095 632.344 57.2575 632.376 57.3052C632.584 55.3086 633.131 53.2391 634.014 51.0977L635.019 51.512C633.952 54.0991 633.403 56.5586 633.368 58.8919Z" fill="#E1E5F0"/>
<path d="M633.015 50.8601C633.394 51.7802 633.75 52.3216 634.081 52.4842C634.412 52.6469 635.002 52.5852 635.85 52.299C635.672 51.8765 635.274 51.5242 634.654 51.2421C634.035 50.9601 633.489 50.8327 633.015 50.8601Z" fill="#E1E5F0"/>
</g>
<g clip-path="url(#clip2_4337_9191)">
<path d="M191.238 396.2H150.389C149.149 396.2 148.065 395.167 148.065 393.927V393.669C148.065 392.43 149.149 391.397 150.492 391.397H188.345C211.274 391.397 234.202 391.397 257.08 391.397H292.196C293.435 391.397 294.519 392.43 294.519 393.669V393.927C294.519 395.167 293.487 396.2 292.196 396.2H242.361L256.098 421.4C265.859 439.372 275.619 457.291 285.431 475.262L301.594 504.904C302.162 505.937 301.698 507.28 300.613 507.9L300.407 508.003C299.322 508.571 297.928 508.261 297.411 507.28L236.939 396.2H196.659L136.187 507.28C135.671 508.261 134.277 508.623 133.192 508.003L132.986 507.9C131.901 507.28 131.436 505.937 132.004 504.904L148.168 475.262C157.928 457.291 167.689 439.372 177.5 421.4L191.238 396.2ZM148.22 375.963V345.937C148.22 323.036 148.22 300.189 148.22 277.341V250.055C148.22 245.777 151.688 242.309 155.966 242.309H240.245C244.523 242.309 247.991 245.777 247.991 250.055V376.051C247.991 380.329 244.523 383.797 240.245 383.797C240.242 383.797 240.239 383.797 240.236 383.797L155.958 383.709C151.683 383.704 148.22 380.237 148.22 375.963Z" fill="#D8DEED"/>
</g>
<g clip-path="url(#clip3_4337_9191)">
<path d="M82.0653 368.382L79.4873 426.816H62.812L54.8076 392.006L60.5158 389.436L70.5058 418.218L73.5957 368.382H82.0653Z" fill="#D8DEED"/>
<mask id="mask0_4337_9191" style="mask-type:alpha" maskUnits="userSpaceOnUse" x="5" y="271" width="124" height="239">
<path d="M45.0736 426.814H92.7148C95.5483 426.814 97.8453 429.111 97.8453 431.945V486.549C97.8453 499.097 87.6727 509.27 75.1242 509.27H62.6642C50.1157 509.27 39.9431 499.097 39.9431 486.549V431.945C39.9431 429.111 42.2401 426.814 45.0736 426.814ZM5.92893 336.956C5.82718 335.716 5.92342 334.467 6.21404 333.258C7.72685 326.96 14.0584 323.081 20.3559 324.594C26.0573 325.964 31.2426 328.41 35.9119 331.933C44.2675 338.237 46.5822 344.671 42.8559 351.235C55.0002 351.235 62.0816 355.849 64.1 365.078C68.0664 383.214 68.0664 398.485 60.4375 402.465C47.3699 409.283 34.9025 398.89 27.362 389.434C22.3349 383.13 21.3655 373.47 24.4536 360.456C18.126 359.554 13.258 356.48 9.84956 351.235C7.75206 348.007 6.44518 343.247 5.92893 336.956ZM126.409 353.276C128.752 354.829 129.419 358.061 128.411 362.97C127.635 366.752 125.843 370.251 123.228 373.092L112.056 385.227C115.62 393.623 114.474 399.887 108.618 404.02C97.1118 412.14 86.4422 416.669 81.4225 412.575C72.8242 405.563 76.8953 389.678 81.2892 381.66C84.2185 376.315 90.5266 374.175 100.214 375.24C102.346 367.017 104.744 360.949 107.409 357.037C111.405 351.169 121.496 350.017 126.409 353.276ZM68.046 278.712C68.6102 277.509 69.3746 276.411 70.3067 275.464C74.8508 270.849 82.2757 270.792 86.8908 275.336C90.8452 279.229 93.7647 283.918 95.6492 289.402C99.0509 299.301 97.5273 308.499 91.0782 316.997C101.146 323.788 104.437 331.574 100.949 340.353C94.0965 357.606 85.5568 370.267 77.0063 369.301C62.3603 367.646 55.309 347.07 54.3454 335.014C53.7031 326.976 59.1432 320.089 70.6659 314.351C67.0434 303.683 65.2858 295.221 65.3932 288.966C65.4479 285.784 66.3321 282.365 68.046 278.712Z" fill="white"/>
</mask>
<g mask="url(#mask0_4337_9191)">
<path d="M45.0736 426.814H92.7148C95.5483 426.814 97.8453 429.111 97.8453 431.945V486.549C97.8453 499.097 87.6727 509.27 75.1242 509.27H62.6642C50.1157 509.27 39.9431 499.097 39.9431 486.549V431.945C39.9431 429.111 42.2401 426.814 45.0736 426.814ZM5.92893 336.956C5.82718 335.716 5.92342 334.467 6.21404 333.258C7.72685 326.96 14.0584 323.081 20.3559 324.594C26.0573 325.964 31.2426 328.41 35.9119 331.933C44.2675 338.237 46.5822 344.671 42.8559 351.235C55.0002 351.235 62.0816 355.849 64.1 365.078C68.0664 383.214 68.0664 398.485 60.4375 402.465C47.3699 409.283 34.9025 398.89 27.362 389.434C22.3349 383.13 21.3655 373.47 24.4536 360.456C18.126 359.554 13.258 356.48 9.84956 351.235C7.75206 348.007 6.44518 343.247 5.92893 336.956ZM126.409 353.276C128.752 354.829 129.419 358.061 128.411 362.97C127.635 366.752 125.843 370.251 123.228 373.092L112.056 385.227C115.62 393.623 114.474 399.887 108.618 404.02C97.1118 412.14 86.4422 416.669 81.4225 412.575C72.8242 405.563 76.8953 389.678 81.2892 381.66C84.2185 376.315 90.5266 374.175 100.214 375.24C102.346 367.017 104.744 360.949 107.409 357.037C111.405 351.169 121.496 350.017 126.409 353.276ZM68.046 278.712C68.6102 277.509 69.3746 276.411 70.3067 275.464C74.8508 270.849 82.2757 270.792 86.8908 275.336C90.8452 279.229 93.7647 283.918 95.6492 289.402C99.0509 299.301 97.5273 308.499 91.0782 316.997C101.146 323.788 104.437 331.574 100.949 340.353C94.0965 357.606 85.5568 370.267 77.0063 369.301C62.3603 367.646 55.309 347.07 54.3454 335.014C53.7031 326.976 59.1432 320.089 70.6659 314.351C67.0434 303.683 65.2858 295.221 65.3932 288.966C65.4479 285.784 66.3321 282.365 68.046 278.712Z" fill="#E1E5F0"/>
<path d="M71.8587 397.59C70.4512 399.285 68.0138 399.863 64.3258 399.012C31.96 391.54 7.40241 306.738 32.3035 288.97C37.8283 285.028 29.2526 308.378 35.2693 316.273C49.7797 335.314 69.9824 370.041 72.9985 387.987C76.1401 381.579 83.1459 375.268 88.224 368.38C99.9605 352.462 111.891 335.815 124.101 343.26C143.432 355.048 78.5399 418.287 71.8587 397.59ZM122.796 240.066C153.375 239.261 110.463 373.495 87.8089 349.201C65.1549 324.908 92.2162 240.872 122.796 240.066ZM35.912 444.038H101.51V485.083H35.912V444.038Z" fill="#F2F6FB"/>
</g>
</g>
<path d="M546.011 398.781H586.86C588.1 398.781 589.184 397.748 589.184 396.508V396.25C589.184 395.011 588.1 393.978 586.757 393.978H548.904C525.975 393.978 503.047 393.978 480.169 393.978H445.053C443.814 393.978 442.73 395.011 442.73 396.25V396.508C442.73 397.748 443.762 398.781 445.053 398.781H494.888L481.151 423.982C471.39 441.953 461.63 459.872 451.818 477.843L435.655 507.485C435.087 508.518 435.551 509.861 436.636 510.481L436.842 510.584C437.927 511.152 439.321 510.842 439.838 509.861L500.31 398.781H540.59L601.062 509.861C601.578 510.842 602.972 511.204 604.057 510.584L604.263 510.481C605.348 509.861 605.813 508.518 605.245 507.485L589.081 477.843C579.321 459.872 569.56 441.953 559.749 423.982L546.011 398.781ZM589.029 378.544V348.518C589.029 325.618 589.029 302.77 589.029 279.923V252.636C589.029 248.358 585.561 244.89 581.283 244.89H497.005C492.726 244.89 489.258 248.358 489.258 252.636V378.632C489.258 382.91 492.726 386.379 497.005 386.379C497.007 386.379 497.01 386.379 497.013 386.379L581.291 386.29C585.566 386.285 589.029 382.819 589.029 378.544Z" fill="#D8DEED"/>
<g clip-path="url(#clip4_4337_9191)">
<path d="M376.301 39.0713H186.222C184.95 39.0713 183.918 40.1019 183.918 41.3732V186.013C183.918 187.284 184.95 188.314 186.222 188.314H376.301C377.574 188.314 378.605 187.284 378.605 186.013V41.3732C378.605 40.1019 377.574 39.0713 376.301 39.0713Z" fill="#F2F6FB"/>
<mask id="mask1_4337_9191" style="mask-type:alpha" maskUnits="userSpaceOnUse" x="310" y="73" width="33" height="102">
<path d="M315.152 73.2178H337.971C339.683 73.2178 340.303 73.3958 340.929 73.7302C341.555 74.0646 342.046 74.5553 342.381 75.1805C342.715 75.8057 342.894 76.4259 342.894 78.1361V169.835C342.894 171.545 342.715 172.165 342.381 172.79C342.046 173.415 341.555 173.906 340.929 174.24C340.303 174.575 339.683 174.753 337.971 174.753H315.152C313.44 174.753 312.82 174.575 312.194 174.24C311.568 173.906 311.077 173.415 310.742 172.79C310.408 172.165 310.229 171.545 310.229 169.835V78.1361C310.229 76.4259 310.408 75.8057 310.742 75.1805C311.077 74.5553 311.568 74.0646 312.194 73.7302C312.82 73.3958 313.44 73.2178 315.152 73.2178Z" fill="white"/>
</mask>
<g mask="url(#mask1_4337_9191)">
<path d="M315.152 73.2178H337.971C339.683 73.2178 340.303 73.3958 340.929 73.7302C341.555 74.0646 342.046 74.5553 342.381 75.1805C342.715 75.8057 342.894 76.4259 342.894 78.1361V169.835C342.894 171.545 342.715 172.165 342.381 172.79C342.046 173.415 341.555 173.906 340.929 174.24C340.303 174.575 339.683 174.753 337.971 174.753H315.152C313.44 174.753 312.82 174.575 312.194 174.24C311.568 173.906 311.077 173.415 310.742 172.79C310.408 172.165 310.229 171.545 310.229 169.835V78.1361C310.229 76.4259 310.408 75.8057 310.742 75.1805C311.077 74.5553 311.568 74.0646 312.194 73.7302C312.82 73.3958 313.44 73.2178 315.152 73.2178Z" fill="#E1E5F0"/>
<path d="M311.33 130.72H341.794C342.176 130.72 342.315 130.76 342.455 130.834C342.595 130.909 342.704 131.019 342.779 131.158C342.854 131.298 342.894 131.437 342.894 131.819V174.753H310.229V131.819C310.229 131.437 310.269 131.298 310.344 131.158C310.419 131.019 310.529 130.909 310.668 130.834C310.808 130.76 310.947 130.72 311.33 130.72Z" fill="#D8DEED"/>
</g>
<mask id="mask2_4337_9191" style="mask-type:alpha" maskUnits="userSpaceOnUse" x="265" y="73" width="33" height="102">
<path d="M270.045 73.2178H292.864C294.575 73.2178 295.196 73.3958 295.822 73.7302C296.448 74.0646 296.939 74.5553 297.273 75.1805C297.608 75.8057 297.786 76.4259 297.786 78.1361V169.835C297.786 171.545 297.608 172.165 297.273 172.79C296.939 173.415 296.448 173.906 295.822 174.24C295.196 174.575 294.575 174.753 292.864 174.753H270.045C268.333 174.753 267.712 174.575 267.087 174.24C266.461 173.906 265.97 173.415 265.635 172.79C265.3 172.165 265.122 171.545 265.122 169.835V78.1361C265.122 76.4259 265.3 75.8057 265.635 75.1805C265.97 74.5553 266.461 74.0646 267.087 73.7302C267.712 73.3958 268.333 73.2178 270.045 73.2178Z" fill="white"/>
</mask>
<g mask="url(#mask2_4337_9191)">
<path d="M270.045 73.2178H292.864C294.575 73.2178 295.196 73.3958 295.822 73.7302C296.448 74.0646 296.939 74.5553 297.273 75.1805C297.608 75.8057 297.786 76.4259 297.786 78.1361V169.835C297.786 171.545 297.608 172.165 297.273 172.79C296.939 173.415 296.448 173.906 295.822 174.24C295.196 174.575 294.575 174.753 292.864 174.753H270.045C268.333 174.753 267.712 174.575 267.087 174.24C266.461 173.906 265.97 173.415 265.635 172.79C265.3 172.165 265.122 171.545 265.122 169.835V78.1361C265.122 76.4259 265.3 75.8057 265.635 75.1805C265.97 74.5553 266.461 74.0646 267.087 73.7302C267.712 73.3958 268.333 73.2178 270.045 73.2178Z" fill="#E1E5F0"/>
<path d="M266.222 95.4932H296.686C297.069 95.4932 297.207 95.533 297.347 95.6077C297.487 95.6824 297.597 95.792 297.672 95.9318C297.746 96.0715 297.786 96.2101 297.786 96.5922V174.753H265.122V96.5922C265.122 96.2101 265.162 96.0715 265.237 95.9318C265.311 95.792 265.421 95.6824 265.561 95.6077C265.701 95.533 265.84 95.4932 266.222 95.4932Z" fill="#D8DEED"/>
</g>
<mask id="mask3_4337_9191" style="mask-type:alpha" maskUnits="userSpaceOnUse" x="220" y="73" width="33" height="102">
<path d="M224.937 73.2178H247.756C249.468 73.2178 250.089 73.3958 250.714 73.7302C251.34 74.0646 251.831 74.5553 252.166 75.1805C252.501 75.8057 252.679 76.4259 252.679 78.1361V169.835C252.679 171.545 252.501 172.165 252.166 172.79C251.831 173.415 251.34 173.906 250.714 174.24C250.089 174.575 249.468 174.753 247.756 174.753H224.937C223.226 174.753 222.605 174.575 221.979 174.24C221.353 173.906 220.862 173.415 220.528 172.79C220.193 172.165 220.015 171.545 220.015 169.835V78.1361C220.015 76.4259 220.193 75.8057 220.528 75.1805C220.862 74.5553 221.353 74.0646 221.979 73.7302C222.605 73.3958 223.226 73.2178 224.937 73.2178Z" fill="white"/>
</mask>
<g mask="url(#mask3_4337_9191)">
<path d="M224.937 73.2178H247.756C249.468 73.2178 250.089 73.3958 250.714 73.7302C251.34 74.0646 251.831 74.5553 252.166 75.1805C252.501 75.8057 252.679 76.4259 252.679 78.1361V169.835C252.679 171.545 252.501 172.165 252.166 172.79C251.831 173.415 251.34 173.906 250.714 174.24C250.089 174.575 249.468 174.753 247.756 174.753H224.937C223.226 174.753 222.605 174.575 221.979 174.24C221.353 173.906 220.862 173.415 220.528 172.79C220.193 172.165 220.015 171.545 220.015 169.835V78.1361C220.015 76.4259 220.193 75.8057 220.528 75.1805C220.862 74.5553 221.353 74.0646 221.979 73.7302C222.605 73.3958 223.226 73.2178 224.937 73.2178Z" fill="#E1E5F0"/>
<path d="M221.115 113.106H251.579C251.961 113.106 252.1 113.146 252.24 113.221C252.38 113.296 252.489 113.405 252.564 113.545C252.639 113.685 252.679 113.823 252.679 114.206V174.753H220.015V114.206C220.015 113.823 220.054 113.685 220.129 113.545C220.204 113.405 220.314 113.296 220.454 113.221C220.593 113.146 220.732 113.106 221.115 113.106Z" fill="#D8DEED"/>
</g>
<path d="M183.918 46.7461C183.918 42.5074 187.359 39.0713 191.595 39.0713H370.929C375.168 39.0713 378.605 42.5078 378.605 46.7461V55.9523H183.918V46.7461Z" fill="#E1E5F0"/>
</g>
<g clip-path="url(#clip5_4337_9191)">
<path d="M183.917 66.9577C199.604 66.9577 212.32 54.2414 212.32 38.555C212.32 22.8687 199.604 10.1523 183.917 10.1523C168.231 10.1523 155.515 22.8687 155.515 38.555C155.515 54.2414 168.231 66.9577 183.917 66.9577Z" fill="#474BFF"/>
<g clip-path="url(#clip6_4337_9191)">
<path d="M189.877 36.1724C189.877 33.8759 189.061 31.9114 187.428 30.279C185.796 28.6466 183.831 27.8304 181.535 27.8304C179.238 27.8304 177.274 28.6466 175.641 30.279C174.009 31.9114 173.193 33.8759 173.193 36.1724C173.193 38.469 174.009 40.4334 175.641 42.0658C177.274 43.6983 179.238 44.5145 181.535 44.5145C183.831 44.5145 185.796 43.6983 187.428 42.0658C189.061 40.4334 189.877 38.469 189.877 36.1724ZM199.411 51.6648C199.411 52.3103 199.175 52.8689 198.703 53.3406C198.231 53.8124 197.673 54.0482 197.027 54.0482C196.357 54.0482 195.798 53.8124 195.351 53.3406L188.964 46.9724C186.742 48.5117 184.266 49.2813 181.535 49.2813C179.76 49.2813 178.062 48.9369 176.442 48.2479C174.822 47.5589 173.425 46.6279 172.252 45.4548C171.079 44.2817 170.148 42.8852 169.459 41.2652C168.77 39.6452 168.426 37.9476 168.426 36.1724C168.426 34.3972 168.77 32.6997 169.459 31.0797C170.148 29.4597 171.079 28.0631 172.252 26.89C173.425 25.7169 174.822 24.7859 176.442 24.0969C178.062 23.408 179.76 23.0635 181.535 23.0635C183.31 23.0635 185.007 23.408 186.627 24.0969C188.247 24.7859 189.644 25.7169 190.817 26.89C191.99 28.0631 192.921 29.4597 193.61 31.0797C194.299 32.6997 194.644 34.3972 194.644 36.1724C194.644 38.9034 193.874 41.38 192.335 43.602L198.722 49.9889C199.181 50.4482 199.411 51.0069 199.411 51.6648Z" fill="#F2F6FB"/>
</g>
</g>
<g clip-path="url(#clip7_4337_9191)">
<path d="M560.911 10.1523H368.265C363.708 10.1523 360.015 13.8493 360.015 18.4096V162.499C360.015 167.06 363.708 170.757 368.265 170.757H560.911C565.468 170.757 569.162 167.06 569.162 162.499V18.4096C569.162 13.8493 565.468 10.1523 560.911 10.1523Z" fill="#F2F6FB"/>
<path d="M466.947 67.0871L500.106 77.5099L535.125 97.3482L537.451 93.2088L501.997 73.1241L466.359 61.9219L430.421 83.1284L394.569 95.5269L396.111 100.021L432.411 87.4671L466.947 67.0871Z" fill="#D8DEED"/>
<path d="M393.943 104.049C390.697 104.049 388.065 101.417 388.065 98.1696C388.065 94.9226 390.697 92.2904 393.943 92.2904C397.19 92.2904 399.821 94.9226 399.821 98.1696C399.821 101.417 397.19 104.049 393.943 104.049ZM429.211 90.6107C425.965 90.6107 423.333 87.9785 423.333 84.7315C423.333 81.4846 425.965 78.8524 429.211 78.8524C432.457 78.8524 435.089 81.4846 435.089 84.7315C435.089 87.9785 432.457 90.6107 429.211 90.6107ZM464.479 70.4536C461.232 70.4536 458.601 67.8214 458.601 64.5745C458.601 61.3275 461.232 58.6953 464.479 58.6953C467.725 58.6953 470.357 61.3275 470.357 64.5745C470.357 67.8214 467.725 70.4536 464.479 70.4536ZM499.746 80.5321C496.5 80.5321 493.868 77.8999 493.868 74.653C493.868 71.406 496.5 68.7738 499.746 68.7738C502.993 68.7738 505.624 71.406 505.624 74.653C505.624 77.8999 502.993 80.5321 499.746 80.5321ZM535.014 102.369C531.768 102.369 529.136 99.7368 529.136 96.4898C529.136 93.2428 531.768 90.6107 535.014 90.6107C538.26 90.6107 540.892 93.2428 540.892 96.4898C540.892 99.7368 538.26 102.369 535.014 102.369Z" fill="#FFCB3D"/>
<path d="M481.008 125.464V154.161C481.008 155.036 480.298 155.747 479.422 155.747H477.559C476.683 155.747 475.973 155.037 475.973 154.161V125.464C475.973 124.589 476.683 123.879 477.559 123.879H479.422C480.297 123.879 481.008 124.589 481.008 125.464ZM470.937 130.499V154.158C470.937 155.036 470.227 155.747 469.351 155.747H467.488C466.612 155.747 465.901 155.035 465.901 154.158V130.499C465.901 129.621 466.612 128.91 467.488 128.91H469.351C470.226 128.91 470.937 129.622 470.937 130.499ZM460.866 115.401V154.16C460.866 155.036 460.156 155.747 459.279 155.747H457.417C456.541 155.747 455.83 155.036 455.83 154.16V115.401C455.83 114.525 456.54 113.815 457.417 113.815H459.279C460.155 113.815 460.866 114.525 460.866 115.401ZM450.795 125.464V154.161C450.795 155.036 450.084 155.747 449.208 155.747H447.345C446.47 155.747 445.759 155.037 445.759 154.161V125.464C445.759 124.589 446.469 123.879 447.345 123.879H449.208C450.084 123.879 450.795 124.589 450.795 125.464ZM440.723 110.373V154.157C440.723 155.037 440.013 155.747 439.137 155.747H437.274C436.399 155.747 435.688 155.035 435.688 154.157V110.373C435.688 109.493 436.398 108.783 437.274 108.783H439.137C440.013 108.783 440.723 109.495 440.723 110.373ZM430.652 115.401V154.16C430.652 155.036 429.942 155.747 429.066 155.747H427.203C426.328 155.747 425.617 155.036 425.617 154.16V115.401C425.617 114.525 426.327 113.815 427.203 113.815H429.066C429.942 113.815 430.652 114.525 430.652 115.401ZM420.581 107.018V154.158C420.581 155.035 419.871 155.747 418.995 155.747H417.132C416.256 155.747 415.546 155.035 415.546 154.158V107.018C415.546 106.14 416.256 105.429 417.132 105.429H418.995C419.87 105.429 420.581 106.14 420.581 107.018ZM410.51 103.659V154.162C410.51 155.038 409.8 155.747 408.924 155.747H407.061C406.185 155.747 405.474 155.037 405.474 154.162V103.659C405.474 102.782 406.185 102.074 407.061 102.074H408.924C409.799 102.074 410.51 102.784 410.51 103.659ZM400.439 115.401V154.16C400.439 155.036 399.729 155.747 398.853 155.747H396.99C396.114 155.747 395.403 155.036 395.403 154.16V115.401C395.403 114.525 396.114 113.815 396.99 113.815H398.853C399.728 113.815 400.439 114.525 400.439 115.401ZM541.435 125.464V154.161C541.435 155.036 540.725 155.747 539.849 155.747H537.986C537.11 155.747 536.399 155.037 536.399 154.161V125.464C536.399 124.589 537.11 123.879 537.986 123.879H539.849C540.724 123.879 541.435 124.589 541.435 125.464ZM531.364 110.373V154.157C531.364 155.037 530.654 155.747 529.777 155.747H527.915C527.039 155.747 526.328 155.035 526.328 154.157V110.373C526.328 109.493 527.039 108.783 527.915 108.783H529.777C530.653 108.783 531.364 109.495 531.364 110.373ZM521.293 115.401V154.16C521.293 155.036 520.582 155.747 519.706 155.747H517.843C516.968 155.747 516.257 155.036 516.257 154.16V115.401C516.257 114.525 516.967 113.815 517.843 113.815H519.706C520.582 113.815 521.293 114.525 521.293 115.401ZM511.222 107.018V154.158C511.222 155.035 510.511 155.747 509.635 155.747H507.772C506.897 155.747 506.186 155.035 506.186 154.158V107.018C506.186 106.14 506.896 105.429 507.772 105.429H509.635C510.511 105.429 511.222 106.14 511.222 107.018ZM501.15 103.659V154.162C501.15 155.038 500.44 155.747 499.564 155.747H497.701C496.826 155.747 496.115 155.037 496.115 154.162V103.659C496.115 102.782 496.825 102.074 497.701 102.074H499.564C500.44 102.074 501.15 102.784 501.15 103.659ZM491.079 115.401V154.16C491.079 155.036 490.369 155.747 489.493 155.747H487.63C486.754 155.747 486.044 155.036 486.044 154.16V115.401C486.044 114.525 486.754 113.815 487.63 113.815H489.493C490.368 113.815 491.079 114.525 491.079 115.401Z" fill="#D8DEED"/>
<path d="M360.015 18.4114C360.015 13.8501 363.711 10.1523 368.262 10.1523H560.915C565.469 10.1523 569.162 13.8504 569.162 18.4114V28.3184H360.015V18.4114Z" fill="#E1E5F0"/>
<path d="M372.185 23.364C374.349 23.364 376.103 21.6079 376.103 19.4417C376.103 17.2756 374.349 15.5195 372.185 15.5195C370.02 15.5195 368.266 17.2756 368.266 19.4417C368.266 21.6079 370.02 23.364 372.185 23.364Z" fill="#FF5645"/>
<path d="M384.972 23.364C387.136 23.364 388.891 21.6079 388.891 19.4417C388.891 17.2756 387.136 15.5195 384.972 15.5195C382.807 15.5195 381.053 17.2756 381.053 19.4417C381.053 21.6079 382.807 23.364 384.972 23.364Z" fill="#FFCB3D"/>
<path d="M398.172 23.364C400.336 23.364 402.091 21.6079 402.091 19.4417C402.091 17.2756 400.336 15.5195 398.172 15.5195C396.007 15.5195 394.253 17.2756 394.253 19.4417C394.253 21.6079 396.007 23.364 398.172 23.364Z" fill="#3ABF7C"/>
<path d="M376.023 38.2792L376.023 46.5767C376.023 47.1992 376.339 47.4249 376.93 47.6524C377.522 47.88 378.391 48.0585 379.497 48.1802C380.604 48.3019 381.702 48.3667 384.729 48.3667L547.03 48.3667C550.057 48.3667 551.154 48.3019 552.261 48.1802C553.368 48.0586 554.236 47.88 554.828 47.6524C555.42 47.4249 555.735 47.1992 555.735 46.5768L555.735 38.2793C555.735 37.6568 555.42 37.4311 554.828 37.2036C554.236 36.976 553.368 36.7975 552.261 36.6758C551.154 36.5541 550.057 36.4893 547.03 36.4893L384.729 36.4893C381.702 36.4893 380.604 36.5541 379.497 36.6758C378.391 36.7975 377.522 36.976 376.93 37.2036C376.339 37.4311 376.023 37.6568 376.023 38.2792Z" fill="#E1E5F0"/>
<g clip-path="url(#clip8_4337_9191)">
<path d="M386.391 42.0504C386.391 41.438 386.174 40.9141 385.738 40.4788C385.303 40.0435 384.779 39.8259 384.167 39.8259C383.554 39.8259 383.03 40.0435 382.595 40.4788C382.16 40.9141 381.942 41.438 381.942 42.0504C381.942 42.6628 382.16 43.1867 382.595 43.622C383.03 44.0573 383.554 44.2749 384.167 44.2749C384.779 44.2749 385.303 44.0573 385.738 43.622C386.174 43.1867 386.391 42.6628 386.391 42.0504ZM388.933 46.1817C388.933 46.3538 388.871 46.5028 388.745 46.6286C388.619 46.7544 388.47 46.8173 388.298 46.8173C388.119 46.8173 387.97 46.7544 387.851 46.6286L386.148 44.9304C385.555 45.3409 384.895 45.5461 384.167 45.5461C383.693 45.5461 383.241 45.4543 382.809 45.2705C382.377 45.0868 382.004 44.8385 381.691 44.5257C381.378 44.2129 381.13 43.8405 380.946 43.4085C380.763 42.9765 380.671 42.5238 380.671 42.0504C380.671 41.577 380.763 41.1243 380.946 40.6923C381.13 40.2603 381.378 39.8879 381.691 39.5751C382.004 39.2623 382.377 39.014 382.809 38.8303C383.241 38.6465 383.693 38.5547 384.167 38.5547C384.64 38.5547 385.093 38.6465 385.525 38.8303C385.957 39.014 386.329 39.2623 386.642 39.5751C386.955 39.8879 387.203 40.2603 387.387 40.6923C387.57 41.1243 387.662 41.577 387.662 42.0504C387.662 42.7787 387.457 43.4391 387.047 44.0316L388.75 45.7348C388.872 45.8573 388.933 46.0063 388.933 46.1817Z" fill="#F2F6FB"/>
</g>
</g>
<g clip-path="url(#clip9_4337_9191)">
<path d="M650.611 122.774C677.279 126.679 690.114 134.199 690.114 144.649V497.138H695.309V144.649C695.309 130.651 680.328 121.874 651.364 117.634L650.611 122.774Z" fill="#D8DEED"/>
<path d="M662.214 105.504C662.336 105.771 662.345 106.088 662.211 106.376L651.232 129.919C650.99 130.439 650.371 130.664 649.851 130.422L627.25 119.882C626.73 119.64 626.505 119.022 626.747 118.501L637.726 94.958C637.807 94.7825 637.932 94.6406 638.081 94.5389C638.714 93.2562 644.906 94.8668 651.521 97.9514C657.728 100.846 662.168 104.04 662.214 105.504Z" fill="#E1E5F0"/>
<path d="M641.86 118.67C661.234 127.705 669.616 150.734 660.582 170.108L660.033 171.285L589.873 138.569L590.422 137.392C599.457 118.018 622.486 109.636 641.86 118.67Z" fill="#F2F6FB"/>
<path d="M621.879 161.519C641.253 170.553 658.384 174.82 660.143 171.049C661.901 167.279 647.621 156.898 628.247 147.864C608.873 138.83 591.742 134.563 589.983 138.333C588.225 142.104 602.505 152.485 621.879 161.519Z" fill="#E1E5F0"/>
<path d="M651.508 491.6H697.748C704.347 491.6 709.697 496.95 709.697 503.549V508.745H639.559V503.549C639.559 496.95 644.909 491.6 651.508 491.6Z" fill="#E1E5F0"/>
</g>
<g clip-path="url(#clip10_4337_9191)">
<path d="M140.038 508.533C138.695 508.533 137.662 507.64 137.714 506.567V505.852C137.714 504.78 138.798 503.886 140.038 503.886H192.97C194.261 503.886 195.294 504.78 195.294 505.852V506.567C195.294 507.64 194.209 508.533 192.97 508.533H140.038ZM209.03 503.886H291.14C292.423 503.886 293.464 504.926 293.464 506.21C293.464 507.493 292.423 508.533 291.14 508.533H209.03C207.747 508.533 206.706 507.493 206.706 506.21C206.706 504.926 207.747 503.886 209.03 503.886Z" fill="#DE3190"/>
<path d="M206.027 382.293L201.615 384.633L201.551 386.667C201.426 391.888 201.228 396.477 200.958 400.523C200.761 403.706 198.065 439.772 197.088 453.007C196.885 456.008 194.756 458.622 191.74 459.542C187.192 460.968 184.276 461.794 172.368 462.611C171.596 462.682 170.82 462.664 170.096 462.643C158.503 462.134 152.665 460.701 151.355 460.201C149.68 459.578 148.791 459.291 147.886 458.551C144.696 456.029 144.755 451.854 144.648 450.315C144.017 440.164 142.281 412.229 141.27 388.989C140.343 388.659 139.471 388.187 138.718 387.513C135.626 384.726 131.338 381.51 128.991 376.031C122.349 360.527 121.64 343.221 126.863 324.113C130.952 315.271 133.701 310.472 135.11 309.715L243.27 317.102C244.266 317.081 245.264 317.059 246.264 317.037C259.329 316.802 269.916 326.999 269.606 339.452C269.606 339.546 269.606 339.593 269.606 339.687C268.78 378.312 259.123 433.338 258.452 451.946C258.4 452.651 258.193 454.201 257.109 455.846C253.752 460.874 245.903 459.746 227.57 460.169C211.974 460.545 205.674 461.673 202.472 457.538C200.717 455.282 200.768 452.698 200.82 451.523C202.075 428.341 203.894 404.945 206.027 382.293Z" fill="#3ABF7C"/>
<path opacity="0.176986" d="M206.212 382.275L201.805 384.612L202.985 347.385C202.964 345.345 202.784 333.011 192.235 325.525C184.55 320.118 175.454 320.067 169.407 320.048C165.985 320.032 153.777 319.813 148.957 325.525C140.677 335.34 139.95 353.743 140.108 356.347C140.396 361.554 140.736 369.663 141.071 379.087C141.183 382.243 141.317 385.574 141.466 389.005C140.523 388.674 139.634 388.198 138.869 387.513C135.776 384.726 131.488 381.51 129.141 376.031C122.5 360.527 121.79 343.221 127.014 324.113C131.103 315.271 133.852 310.472 135.261 309.715L242.444 317.036C239.463 317.101 236.491 317.166 233.494 317.231C221.875 317.512 212.218 325.924 210.978 336.919C209.294 351.478 207.679 366.701 206.212 382.275Z" fill="#444444"/>
<path d="M193.937 504.155C193.594 503.984 193.194 503.885 192.765 503.885H140.467L152.638 472.182L189.257 474.02C189.257 474.02 190.968 482.474 193.937 504.155ZM207.941 504.06L207.589 470.922L246.578 471.438L255.921 478.327C258.038 480.496 260.31 482.407 262.789 484.111C268.779 488.191 271.93 488.139 281.07 492.683C283.601 493.871 285.924 495.214 288.248 496.711C289.384 497.796 291.347 499.862 291.966 502.34C292.07 502.702 292.07 503.115 292.121 503.528C292.121 503.814 292.111 504.031 292.092 504.193C291.751 503.997 291.356 503.885 290.935 503.885H208.826C208.513 503.885 208.214 503.947 207.941 504.06Z" fill="#474961"/>
<path d="M208.967 259.928C208.103 277.516 206.152 301.704 204.385 306.399C201.706 313.515 150.328 308.449 143.486 306.893C139.209 305.926 135.221 294.398 134.483 290.537C133.857 287.43 130.383 283.959 137.961 256.34C134.642 255.479 131.923 254.754 130.448 254.377C124.469 252.85 127.101 245.867 128.16 241.068C131.195 227.373 135 222.358 136.301 220.849C137.794 219.123 139.239 217.883 140.202 217.128C146.705 212.06 153.593 211.305 157.109 211.251C157.205 211.197 157.302 211.197 157.398 211.197L174.497 210.981C174.44 211.443 174.378 211.937 174.313 212.458C175.027 212.485 175.729 212.517 176.413 212.553C176.436 212.032 176.458 211.565 176.479 211.105L193.558 214.379C193.558 214.379 203.67 216.924 209.231 222.834C210.054 223.713 211.271 225.133 212.454 227.02C213.484 228.67 216.398 234.06 217.108 247.505C217.354 252.215 218.8 259.264 212.659 259.667C211.8 259.723 210.529 259.815 208.967 259.928Z" fill="#DE3190"/>
<path opacity="0.176986" d="M209.035 259.922C209.607 248.137 208.988 239.599 208.466 236.203C208.095 233.773 207.49 231.525 207.49 231.525C207.205 229.928 206.6 227.68 205.126 225.309C200.551 217.71 191.396 215.296 185.227 213.598C183.876 213.236 180.475 212.866 176.408 212.651C176.433 212.093 176.457 211.586 176.479 211.098L193.548 214.371C193.548 214.371 203.67 216.923 209.231 222.832C210.054 223.712 211.271 225.132 212.455 227.019C213.484 228.669 216.398 234.059 217.108 247.504C217.354 252.214 218.8 259.263 212.659 259.666C211.813 259.721 210.566 259.812 209.035 259.922Z" fill="#444444"/>
<path d="M233.836 242.828C237.737 239.039 244.785 233.288 254.98 225.574C258.108 225.94 257.881 228.419 254.298 233.014L233.836 242.828ZM166.104 262.359C165.934 262.751 165.477 262.931 165.085 262.761C164.693 262.59 164.513 262.134 164.684 261.741C165.683 259.442 166.085 258.157 166.86 254.801C166.956 254.384 167.372 254.124 167.789 254.221C168.206 254.317 168.466 254.733 168.369 255.15C167.575 258.592 167.145 259.965 166.104 262.359Z" fill="#482D1F"/>
<path d="M189.256 474.021L152.635 472.182L155.004 461.105C158.073 461.681 162.997 462.333 170.052 462.643C170.776 462.664 171.552 462.683 172.325 462.611C181.428 461.986 185.276 461.356 188.616 460.457L189.256 474.021ZM246.578 471.439L207.589 470.922C207.589 470.922 207.534 467.225 207.51 460.261C211.504 460.946 217.652 460.407 227.526 460.169C232.855 460.046 237.298 460.054 241.003 460.004L246.578 471.439ZM205.354 298.018L208.741 259.922C209.476 259.865 210.04 259.822 210.432 259.792C211.222 259.733 212.036 259.703 212.975 259.515C214.183 259.274 214.998 258.973 215.421 258.614L216.923 268.855L231.554 244.942C232.274 243.765 233.296 242.802 234.513 242.152L260.477 228.287C264.456 224.555 267.319 222.394 269.066 221.805C270.812 221.216 272.634 221.797 274.53 223.549L251.896 247.268C249.053 255.494 245.923 263.704 242.507 271.899C239.092 280.089 233.783 292.099 226.58 307.928C236.416 313.204 242.338 317.381 242.338 317.381C242.338 317.381 169.12 316.141 140.076 314.363C114.237 312.78 126.697 264.8 129.761 254.232C129.918 254.285 130.082 254.333 130.253 254.377C135.602 255.743 157.301 261.771 164.64 262.183L157.595 286.786C174.903 287.705 191.504 292.493 205.354 298.018ZM185.383 212.458C186.665 212.812 188.213 213.128 189.596 213.619C188.446 216.429 186.847 218.076 184.799 218.559C181.726 219.284 174.371 219.284 169.536 217.206C166.313 215.821 163.886 213.801 162.256 211.148C164.128 211.113 165.887 211.083 167.532 211.06V191.898C166.232 190.375 165.094 188.922 164.425 187.574C163.296 185.34 163.455 179.704 163.945 177.017C164.108 175.914 172.055 168.084 176.656 175.765L176.224 162.532C176.204 161.705 176.814 160.977 177.693 160.952C179.498 160.846 181.294 160.637 183.213 160.055C183.419 160.037 183.62 159.967 183.826 159.949C185.561 159.642 195.347 158.319 201.027 165.183C201.544 165.76 202.015 166.393 202.447 167.184C203.385 169.02 203.925 171.047 203.951 173.118L204.032 182.338C204.01 183.273 203.936 184.213 203.807 185.105C202.882 191.718 200.928 197.228 198.648 200.797C196.965 203.484 195.034 205.105 193.238 205.314C192.728 205.41 189.945 205.602 186.619 204.908C186.402 204.856 186.459 204.901 185.103 204.447L185.383 212.458Z" fill="#DB9E75"/>
<path d="M158.298 287.008C158.723 286.968 159.101 287.281 159.141 287.707C159.182 288.133 158.869 288.51 158.443 288.551C158.342 288.56 158.146 288.582 157.866 288.62C157.396 288.682 156.872 288.765 156.306 288.871C154.692 289.172 153.078 289.591 151.58 290.147C150.695 290.474 149.877 290.841 149.138 291.247C148.763 291.453 148.292 291.316 148.086 290.941C147.88 290.566 148.017 290.095 148.392 289.889C149.201 289.444 150.088 289.047 151.041 288.694C152.631 288.105 154.327 287.664 156.022 287.348C156.615 287.237 157.166 287.15 157.661 287.084C157.835 287.061 157.99 287.042 158.125 287.026C158.207 287.017 158.265 287.011 158.298 287.008ZM216.316 268.393C216.551 268.036 217.031 267.936 217.389 268.171C217.746 268.406 217.846 268.887 217.611 269.244C217.589 269.277 217.589 269.277 217.488 269.432C217.387 269.585 217.27 269.763 217.139 269.963C216.764 270.536 216.347 271.174 215.898 271.863C214.615 273.831 213.336 275.805 212.148 277.655C212.026 277.846 212.026 277.846 211.903 278.036C210.095 280.858 210.435 280.062 209.576 281.506C209.357 281.873 208.881 281.994 208.514 281.775C208.146 281.556 208.026 281.08 208.245 280.713C209.115 279.251 208.782 280.035 210.599 277.2C210.722 277.009 210.722 277.009 210.844 276.818C212.034 274.964 213.315 272.987 214.6 271.017C215.05 270.327 215.468 269.688 215.843 269.114C215.975 268.913 216.091 268.735 216.192 268.582C216.294 268.426 216.294 268.426 216.316 268.393Z" fill="#482D1F"/>
<path d="M185.32 204.458L177.669 201.717L185.32 210.651L185.32 204.458Z" fill="#482D1F"/>
<path d="M177.466 180.511L177.337 179.559C177.337 179.559 176.97 177.725 175.522 175.985C175.41 175.891 174.436 174.836 173.049 174.387C170.55 173.673 167.455 175.032 165.899 177.397C164.245 179.823 164.511 182.858 165.691 185.087C166.871 187.317 168.869 188.231 169.565 188.481L172.646 189.165C170.416 193.363 168.439 197.115 167.976 197.115C167.126 197.115 163.807 193.183 161.629 190.212C160.568 188.75 156.947 185.282 155.864 179.416C155.635 178.047 154.972 174.374 156 170.478C149.45 166.419 144.829 159.43 144.106 151.163C142.888 137.241 153.186 124.968 167.108 123.75C181.03 122.532 193.304 132.83 194.522 146.752C194.923 151.341 194.073 155.752 192.255 159.646C195.874 160.476 199.73 162.326 201.858 165.904C200.83 166.637 199.587 167.244 198.169 167.627C194.314 168.587 190.902 168.108 188.833 167.563C185.247 171.609 181.605 175.608 178.02 179.654C177.843 179.918 177.657 180.205 177.466 180.511Z" fill="#482D1F"/>
<path fill-rule="evenodd" clip-rule="evenodd" d="M191.709 182.656C191.082 182.607 190.505 183.124 190.405 183.755C190.28 184.699 190.102 186.217 190.572 186.85C191.233 187.881 192.99 185.446 192.678 183.659C192.46 182.953 192.125 182.671 191.709 182.656ZM203.053 183.082C202.426 183.033 201.849 183.55 201.749 184.181C201.624 185.125 201.446 186.644 201.916 187.276C202.577 188.307 204.333 185.873 204.022 184.086C203.804 183.379 203.469 183.097 203.053 183.082Z" fill="#482D1F"/>
<path d="M197.919 184.917L198.421 190.057C198.423 190.076 198.351 190.161 198.326 190.163C198.045 190.188 197.756 190.195 197.303 190.19C197.215 190.19 197.123 190.188 196.991 190.187C196.824 190.184 196.733 190.183 196.645 190.182C196.345 190.178 196.097 190.176 195.832 190.176L195.831 190.176C195.547 190.176 195.316 190.408 195.316 190.693C195.316 190.978 195.548 191.209 195.833 191.209L195.835 191.209C196.093 191.209 196.336 191.211 196.632 191.215C196.718 191.216 196.809 191.217 196.976 191.219C197.11 191.221 197.204 191.222 197.294 191.223C197.777 191.228 198.095 191.22 198.416 191.192C199.009 191.14 199.501 190.554 199.449 189.961L198.947 184.816C198.92 184.532 198.667 184.325 198.383 184.352C198.099 184.38 197.892 184.633 197.919 184.917Z" fill="#482D1F"/>
<path d="M195.101 194.178C194.727 194.055 193.817 193.72 193.72 193.21C193.711 193.107 193.646 192.957 193.745 192.897C193.979 192.617 194.619 192.82 195.568 192.997C197.25 193.264 198.596 193.25 198.596 193.25C198.596 193.25 198.154 194.118 197.863 194.351C197.3 195.022 195.638 194.39 195.101 194.178Z" fill="#482D1F"/>
<path d="M182.375 182.503L179.279 181.842C178.86 181.753 178.594 181.342 178.683 180.923C178.772 180.505 179.184 180.238 179.602 180.327L182.931 181.038C184.04 178.856 186.215 177.278 188.833 177.049C192.868 176.696 196.424 179.681 196.777 183.715C196.786 183.812 196.792 183.908 196.797 184.003L198.368 184.058C198.782 180.696 201.497 177.963 205.008 177.656C209.043 177.303 212.599 180.287 212.952 184.322C213.305 188.356 210.321 191.913 206.286 192.266C202.254 192.619 198.699 189.638 198.343 185.608L196.709 185.551C196.178 188.777 193.519 191.361 190.111 191.66C186.077 192.012 182.52 189.028 182.167 184.993C182.092 184.133 182.168 183.294 182.375 182.503ZM184.035 182.378C183.755 183.147 183.634 183.989 183.71 184.858C183.989 188.041 186.794 190.395 189.976 190.116C193.159 189.838 195.512 187.032 195.234 183.85C194.956 180.668 192.15 178.314 188.968 178.593C186.783 178.784 184.989 180.166 184.169 182.044C184.166 182.06 184.163 182.076 184.16 182.092C184.137 182.198 184.094 182.295 184.035 182.378ZM199.863 185.025C199.865 185.171 199.872 185.317 199.885 185.465C200.164 188.647 202.969 191.001 206.151 190.723C209.333 190.444 211.687 187.639 211.409 184.457C211.131 181.275 208.325 178.921 205.143 179.199C202.213 179.455 199.986 181.853 199.868 184.715C199.878 184.771 199.883 184.828 199.881 184.886C199.879 184.934 199.873 184.98 199.863 185.025Z" fill="#482D1F"/>
<path opacity="0.2" d="M208.935 259.923L205.546 298.046C210.35 300.019 213.943 301.566 216.324 302.687C218.705 303.808 222.185 305.564 226.762 307.956C233.972 292.113 239.285 280.094 242.701 271.899C246.117 263.705 249.247 255.494 252.09 247.268L274.724 223.549C272.828 221.797 271.007 221.215 269.26 221.804C267.513 222.393 264.65 224.554 260.672 228.288L234.707 242.153C233.49 242.802 232.469 243.766 231.749 244.943L217.117 268.855L215.616 258.614C215.278 258.974 214.506 259.274 213.298 259.515C212.359 259.703 211.545 259.734 210.755 259.793C210.363 259.822 209.756 259.865 208.935 259.923Z" fill="#8C2A00"/>
</g>
<g clip-path="url(#clip11_4337_9191)">
<path d="M476.556 503.668L527.849 465.453C528.882 464.678 530.379 464.885 531.154 465.918C531.929 466.951 531.722 468.448 530.689 469.223L478.841 507.851C477.809 508.625 476.311 508.419 475.536 507.386C474.762 506.353 474.968 504.855 476.001 504.081L476.556 503.668H477.292C478.583 503.668 479.668 504.728 479.668 505.991C479.616 507.305 478.583 508.315 477.292 508.315H448.631C447.34 508.315 446.256 507.254 446.256 505.991C446.256 504.728 447.34 503.668 448.631 503.668H476.556ZM567.561 508.421H514.577C513.338 508.421 512.253 507.527 512.253 506.455V505.74C512.253 504.667 513.286 503.773 514.577 503.773H567.51C568.749 503.773 569.833 504.667 569.833 505.74V506.455C569.937 507.527 568.852 508.421 567.561 508.421Z" fill="#FF5645"/>
<path d="M519.212 477.774C519.982 478.092 532.63 477.616 557.156 476.346L565.978 503.774H514.577C514.562 503.774 514.547 503.774 514.532 503.774C517.884 487.081 519.457 478.404 519.251 477.745L519.212 477.774ZM527.654 465.598L476.556 503.668H448.632C448.317 503.668 448.015 503.731 447.737 503.844C447.692 503.623 447.66 503.404 447.65 503.199C447.702 502.838 447.702 502.424 447.805 502.011C448.064 501.082 448.477 500.204 448.941 499.429C450.439 497.054 453.124 495.401 453.124 495.401C456.223 493.387 459.063 492.045 462.42 490.599C464.176 489.824 466.654 488.791 469.546 487.655C470.476 484.66 471.405 481.665 472.335 478.618C474.091 472.782 475.847 466.999 477.551 461.215L508.639 438.647L527.654 465.598Z" fill="#474961"/>
<path d="M518.64 452.918C515.188 455.026 509.193 456.595 499.782 459.774C482.494 465.626 475.583 469.464 470.491 465.545C468.788 464.291 467.984 462.803 467.668 462.092C459.725 443.621 429.088 391.56 413.104 352.985C413.082 352.886 413.021 352.847 412.999 352.748C407.871 340.314 413.716 326.415 426.034 322.196C430.106 320.797 434.189 319.447 438.261 318.048C441.951 316.808 445.791 316.568 449.472 317.202L449.269 316.863L572.271 313.352C574.388 314.397 575.76 318.663 578.172 325.361C580.585 332.06 581.349 343.733 581.143 345.064C581.143 355.467 579.284 365.015 576.185 372.378C574.016 377.46 571.331 381.498 568.232 384.063C567.7 384.512 567.157 384.914 566.606 385.269C566.606 385.985 566.605 386.708 566.605 387.438C566.605 414.45 565.676 453.045 565.366 465.877C565.314 467.574 565.521 472.168 562.422 475.064C561.544 475.912 560.667 476.262 559.014 477.011C557.723 477.61 551.939 479.407 540.372 480.406C539.649 480.456 538.874 480.506 538.099 480.456C526.501 480.019 523.397 479.252 519.009 477.925L530.689 469.223C531.722 468.448 531.929 466.95 531.154 465.918C530.379 464.885 528.882 464.678 527.849 465.453L527.61 465.631L518.64 452.918ZM507.128 411.041C506.795 407.14 506.497 402.804 506.237 397.973L505.338 383.268L491.225 378.062C496.558 388.899 501.884 399.925 507.128 411.041Z" fill="#A339FF"/>
<path opacity="0.176986" d="M566.606 385.077C566.613 375.664 566.664 367.603 566.76 362.285C566.863 357.741 567.638 332.777 557.619 327.584C556.742 327.135 555.864 326.785 554.108 326.136C552.714 325.637 545.484 323.041 536.188 323.44C530.146 323.69 521.057 324.089 513.569 330.33C503.241 338.968 503.499 352.599 503.603 354.795L505.33 383.059L491.142 377.805C483.035 361.334 474.909 345.302 467.022 330.064C463.123 322.55 455.863 317.78 448.077 316.916L572.271 313.159C574.388 314.204 575.759 318.47 578.172 325.169C580.585 331.868 581.349 343.541 581.142 344.871C581.142 355.274 579.283 364.822 576.185 372.185C574.016 377.268 571.331 381.306 568.232 383.871C567.7 384.319 567.157 384.722 566.606 385.077Z" fill="#444444"/>
<path d="M519.587 453.322C521.89 451.745 523.611 449.938 524.068 448.146C524.738 445.65 524.28 443.304 523.246 440.993C517.589 428.35 513.671 419.966 511.484 415.824C511.284 415.446 510.815 415.301 510.437 415.501C510.059 415.7 509.914 416.169 510.114 416.547C512.28 420.649 516.189 429.014 521.832 441.626C522.734 443.642 523.129 445.667 522.57 447.754C522.229 449.086 520.727 450.664 518.712 452.044C518.359 452.286 518.269 452.768 518.51 453.121C518.752 453.474 519.234 453.564 519.587 453.322Z" fill="#482D1F"/>
<mask id="mask4_4337_9191" style="mask-type:alpha" maskUnits="userSpaceOnUse" x="463" y="207" width="137" height="108">
<path d="M573.732 280.295C574.938 291.188 574.967 300.275 574.062 306.268C574.062 306.424 574.014 306.632 573.966 306.788C573.726 308.402 573.389 309.756 572.957 310.849C572.909 310.953 572.861 311.057 572.813 311.161C570.363 315.118 551.003 313.712 546.439 313.868C538.945 314.129 491.987 315.453 490.882 314.724C490.354 314.36 489.729 310.328 489.201 309.756C487.404 307.905 488.171 296.584 489.874 283.017L463.899 280.813C465.713 267.12 466.929 259.378 467.549 257.588C469.357 252.476 474.554 242.789 475.741 238.245C479.046 225.386 483.126 220.583 484.52 219.189C486.121 217.536 487.67 216.4 488.703 215.677C495.675 210.875 503.059 210.152 506.829 210.048C506.882 210.022 510.743 209.756 514.545 209.501C517.599 208.538 521.527 208.241 527.464 208.241C531.809 208.241 535.519 208.503 538.578 208.866C537.713 207.809 537.541 207.535 539.57 207.621L557.902 208.396C558.006 208.396 558.109 208.396 558.212 208.448C561.982 208.551 569.367 209.274 576.338 214.076C577.371 214.799 578.92 215.936 580.521 217.588C581.916 218.982 585.995 223.785 589.3 236.644C590.488 241.188 595.624 249.547 597.432 254.66C598.637 258.068 599.317 265.386 599.474 276.614C591.817 278.16 583.236 279.387 573.732 280.295V280.295Z" fill="white"/>
</mask>
<g mask="url(#mask4_4337_9191)">
<path d="M573.732 280.295C574.938 291.188 574.967 300.275 574.062 306.268C574.062 306.424 574.014 306.632 573.966 306.788C573.726 308.402 573.389 309.756 572.957 310.849C572.909 310.953 572.861 311.057 572.813 311.161C570.363 315.118 551.003 313.712 546.439 313.868C538.945 314.129 491.987 315.453 490.882 314.724C490.354 314.36 489.729 310.328 489.201 309.756C487.404 307.905 488.171 296.584 489.874 283.017L463.899 280.813C465.713 267.12 466.929 259.378 467.549 257.588C469.357 252.476 474.554 242.789 475.741 238.245C479.046 225.386 483.126 220.583 484.52 219.189C486.121 217.536 487.67 216.4 488.703 215.677C495.675 210.875 503.059 210.152 506.829 210.048C506.882 210.022 510.743 209.756 514.545 209.501C517.599 208.538 521.527 208.241 527.464 208.241C531.809 208.241 535.519 208.503 538.578 208.866C537.713 207.809 537.541 207.535 539.57 207.621L557.902 208.396C558.006 208.396 558.109 208.396 558.212 208.448C561.982 208.551 569.367 209.274 576.338 214.076C577.371 214.799 578.92 215.936 580.521 217.588C581.916 218.982 585.995 223.785 589.3 236.644C590.488 241.188 595.624 249.547 597.432 254.66C598.637 258.068 599.317 265.386 599.474 276.614C591.817 278.16 583.236 279.387 573.732 280.295V280.295Z" fill="#FF5645"/>
<path d="M517.404 208.93C513.207 210.136 510.576 214.341 509.51 221.545C508.444 228.749 507.154 249.922 505.642 285.065L529.291 292.393L554.016 285.79C552.488 248.281 551.222 226.715 550.217 221.093C548.711 212.659 547.281 210.991 542.354 208.93C537.427 206.869 532.745 207.157 527.277 207.655C523.632 207.987 520.341 208.412 517.404 208.93Z" fill="#FFCB3D"/>
</g>
<path d="M539.21 193.376L539.778 210.047C539.778 210.409 539.623 210.77 539.313 210.925C537.971 211.751 536.06 212.681 533.684 213.197C529.398 214.178 525.732 213.455 523.666 212.836C523.253 212.732 522.943 212.319 522.943 211.906L522.745 202.917C520.063 203.914 520.212 203.814 519.948 203.902C516.695 204.728 513.906 204.625 513.389 204.521C511.53 204.367 509.568 202.817 507.812 200.184C505.437 196.672 503.319 191.198 502.183 184.64C501.977 183.71 501.925 182.781 501.873 181.851L501.667 172.607C501.615 170.542 502.132 168.528 503.113 166.617C503.526 165.791 503.939 165.119 504.456 164.551C504.472 164.53 504.489 164.508 504.506 164.487C504.524 164.457 504.542 164.426 504.559 164.396C508.535 158.871 516.849 158.148 520.671 158.561C521.136 158.612 522.788 158.819 525.164 158.974C526.455 159.077 527.488 159.077 528.107 159.129C535.802 159.439 538.849 158.509 542.722 160.575C543.445 160.936 545.097 161.866 546.543 163.673C550.623 168.786 549.433 175.396 549.175 177.358C548.246 183.245 545.046 186.86 544.013 188.358C542.93 189.955 540.898 191.893 539.21 193.376ZM468.368 306.192C464.386 300.674 464.308 290.979 465.358 280.862C466.507 280.862 474.67 281.447 489.848 282.618C492.962 282.876 498.235 283.504 505.666 284.501L533.005 290.77L565.134 282.913L564.979 281.451C569.424 280.878 572.663 280.447 574.696 280.157C580.159 279.377 588.164 278.203 598.71 276.636C600.052 292.512 597.751 310.112 582.537 315.137H518.273L462.74 316.773C461.885 316.798 461.171 316.125 461.146 315.27C461.136 314.93 461.238 314.597 461.436 314.321C463.764 311.074 466.075 308.364 468.368 306.192Z" fill="#DB9E75"/>
<path opacity="0.2" d="M468.407 306.248C464.386 300.738 464.304 291.013 465.357 280.862C466.506 280.862 472.394 281.264 483.021 282.068C486.708 282.211 494.256 283.023 505.666 284.502C516.496 286.985 525.686 289.092 533.234 290.823L503.945 297.985C503.164 297.718 502.36 297.475 501.534 297.261C487.901 293.729 477.056 300.113 473.235 302.49C471.468 303.589 469.861 304.879 468.407 306.248Z" fill="#8C2A00"/>
<path d="M548.599 179.833C546.314 179.26 543.799 178.57 541.2 177.818C541.016 177.106 540.706 176.414 540.244 175.771C538.592 173.447 535.285 172.143 532.806 172.969C531.606 173.369 530.749 174.229 530.469 174.526C524.189 172.501 518.639 170.545 516.042 169.466C513.013 168.207 510.998 167.005 509.998 165.862C506.39 167.99 503.619 169.409 501.685 170.118C501.908 168.842 502.342 167.595 502.961 166.388C503.374 165.562 503.787 164.891 504.304 164.323C504.321 164.301 504.338 164.28 504.354 164.258C504.372 164.228 504.39 164.198 504.407 164.168C508.384 158.642 516.698 157.919 520.519 158.332C520.984 158.384 522.637 158.59 525.012 158.745C526.303 158.849 527.336 158.849 527.956 158.9C535.65 159.21 538.697 158.281 542.57 160.346C543.293 160.708 544.946 161.637 546.392 163.445C550.471 168.557 549.49 175.167 549.232 177.13C549.08 178.091 548.862 178.992 548.599 179.833ZM503.474 178.959C502.958 178.856 502.803 178.185 503.164 177.823C503.629 177.41 504.455 176.997 505.488 176.997C507.605 176.997 509.878 178.391 507.502 179.011C506.108 179.424 504.455 179.166 503.474 178.959ZM514.112 179.321C513.596 179.218 513.441 178.546 513.854 178.185C514.319 177.772 515.145 177.359 516.23 177.359C518.347 177.359 520.619 178.805 518.244 179.373C516.746 179.786 515.145 179.528 514.112 179.321Z" fill="#482D1F"/>
<path d="M522.634 202.799L528.498 199.753L522.995 208.24L522.634 202.799Z" fill="#482D1F"/>
<path d="M507.502 182.574C507.45 183.452 507.295 184.898 506.779 185.414C505.901 186.189 504.765 183.607 505.436 182.006C505.695 181.335 506.056 181.231 506.469 181.283C507.089 181.386 507.502 181.954 507.502 182.574ZM516.746 182.471C516.797 183.349 516.797 184.795 516.281 185.414C515.506 186.292 514.06 183.813 514.577 182.161C514.783 181.489 515.145 181.335 515.558 181.335C516.178 181.335 516.694 181.851 516.746 182.471Z" fill="#482D1F"/>
<path d="M512.511 193.109C512.872 193.006 513.75 192.748 513.905 192.18C513.905 192.076 513.957 191.921 513.905 191.818C513.699 191.457 513.079 191.663 512.149 191.715C510.497 191.818 509.154 191.663 509.154 191.663C509.154 191.663 509.516 192.696 509.774 193.006C510.342 193.781 511.995 193.264 512.511 193.109Z" fill="#482D1F"/>
<path d="M508.23 188.131C508.133 188.714 508.584 189.286 509.173 189.384C509.302 189.396 509.302 189.396 509.385 189.402C510.257 189.469 510.801 189.494 511.737 189.494C512.022 189.494 512.253 189.263 512.253 188.978C512.253 188.693 512.022 188.461 511.737 188.461C510.831 188.461 510.311 188.438 509.465 188.372L509.297 188.36C509.296 188.357 509.249 188.298 509.251 188.288L510.027 182.749L510.032 182.678V179.631C510.032 179.345 509.801 179.114 509.516 179.114C509.231 179.114 509 179.345 509 179.631V182.641L508.23 188.131Z" fill="#482D1F"/>
<path d="M541.179 177.939C541.415 179.452 541.143 181.099 540.456 182.424C539.621 184.094 538.446 185.004 536.928 185.705C536.669 185.824 536.556 186.131 536.676 186.39C536.795 186.649 537.102 186.762 537.361 186.642C538.028 186.334 538.558 186.037 539.171 185.562C540.075 184.862 540.831 183.984 541.376 182.893C542.16 181.38 542.47 179.511 542.199 177.78C542.155 177.498 541.891 177.305 541.609 177.349C541.327 177.393 541.135 177.657 541.179 177.939Z" fill="#482D1F"/>
<path d="M494.01 282.577C495.015 263.635 495.461 255.209 496.017 244.647C496.071 243.616 497.619 243.697 497.564 244.729L495.557 282.659C495.503 283.691 493.955 283.609 494.01 282.577ZM565.985 280.97C566.286 281.949 564.826 282.411 564.508 281.438L557.33 259.439C557.016 258.476 558.441 257.98 558.793 258.929C559.799 261.643 564.505 276.159 565.985 280.97Z" fill="#482D1F"/>
</g>
<g clip-path="url(#clip12_4337_9191)">
<path d="M396.145 304.897L401.112 284.859H363.832C359.959 284.859 356.756 281.915 356.756 278.352V221.598C356.705 217.984 359.856 215.04 363.78 215.04H477.236C481.109 215.04 484.311 217.984 484.311 221.547V278.352C484.311 281.915 481.109 284.859 477.236 284.859H431.804L429.754 304.897H443.205C445.271 304.897 446.872 306.549 446.872 308.563C446.872 310.629 445.219 312.23 443.205 312.23H385.625C383.56 312.23 381.959 310.577 381.959 308.563C381.855 306.549 383.56 304.897 385.625 304.897H396.145Z" fill="#474961"/>
<path fill-rule="evenodd" clip-rule="evenodd" d="M433.343 270.254L433.496 304.948H429.794L433.343 270.254Z" fill="white"/>
</g>
<g clip-path="url(#clip13_4337_9191)">
<path d="M576.39 312.126H162.744C160.747 312.126 159.129 313.744 159.129 315.741C159.129 317.737 160.747 319.356 162.744 319.356H576.39C578.387 319.356 580.005 317.737 580.005 315.741C580.005 313.744 578.387 312.126 576.39 312.126Z" fill="#D8DEED"/>
</g>
</g>
<defs>
<clipPath id="clip0_4337_9191">
<rect width="735.479" height="511" fill="white"/>
</clipPath>
<clipPath id="clip1_4337_9191">
<rect width="92.3906" height="73.9125" fill="white" transform="translate(586.578 16.4072)"/>
</clipPath>
<clipPath id="clip2_4337_9191">
<rect width="170.416" height="268.534" fill="white" transform="translate(131.761 239.829)"/>
</clipPath>
<clipPath id="clip3_4337_9191">
<rect width="137.793" height="239.672" fill="white" transform="translate(-0.000976562 269.601)"/>
</clipPath>
<clipPath id="clip4_4337_9191">
<rect width="194.688" height="149.243" fill="white" transform="translate(183.918 39.0713)"/>
</clipPath>
<clipPath id="clip5_4337_9191">
<rect width="56.8054" height="56.8054" fill="white" transform="translate(155.516 10.1523)"/>
</clipPath>
<clipPath id="clip6_4337_9191">
<rect width="30.9848" height="30.9848" fill="white" transform="translate(168.426 23.0635)"/>
</clipPath>
<clipPath id="clip7_4337_9191">
<rect width="209.147" height="160.604" fill="white" transform="translate(360.015 10.1523)"/>
</clipPath>
<clipPath id="clip8_4337_9191">
<rect width="8.2626" height="8.2626" fill="white" transform="translate(380.671 38.5547)"/>
</clipPath>
<clipPath id="clip9_4337_9191">
<rect width="154.305" height="415.117" fill="white" transform="translate(579.81 93.627)"/>
</clipPath>
<clipPath id="clip10_4337_9191">
<rect width="269.567" height="390.408" fill="white" transform="translate(73.3213 117.955)"/>
</clipPath>
<clipPath id="clip11_4337_9191">
<rect width="269.567" height="390.408" fill="white" transform="translate(368.277 117.955)"/>
</clipPath>
<clipPath id="clip12_4337_9191">
<rect width="182.81" height="137.366" fill="white" transform="translate(329.386 175.276)"/>
</clipPath>
<clipPath id="clip13_4337_9191">
<rect width="668.238" height="7.22977" fill="white" transform="translate(159.129 312.126)"/>
</clipPath>
</defs>
</svg>
